<?xml version="1.0" encoding="iso-8859-1"?>
<!-- Uploaded to: SVG Repo, www.svgrepo.com, Generator: SVG Repo Mixer Tools -->
<svg version="1.1" id="Layer_1" xmlns="http://www.w3.org/2000/svg" xmlns:xlink="http://www.w3.org/1999/xlink" 
	 viewBox="0 0 512 512" xml:space="preserve">
<path style="fill:#FEDEA1;" d="M179.2,422.4v-95.727c-54.699-28.527-89.6-85.53-89.6-147.473c0-91.75,74.65-166.4,166.4-166.4
	s166.4,74.65,166.4,166.4c0,61.943-34.901,118.946-89.6,147.473V422.4H179.2z M256,140.8c-21.171,0-38.4,17.229-38.4,38.4
	c0,17.365,11.853,32.58,28.817,36.992l9.583,2.492l9.583-2.492c16.973-4.412,28.817-19.627,28.817-36.992
	C294.4,158.029,277.171,140.8,256,140.8z"/>
<rect x="179.2" y="422.4" style="fill:#BFA779;" width="153.6" height="76.8"/>
<path style="fill:#FF877F;" d="M256,217.6c-21.171,0-38.4-17.229-38.4-38.4s17.229-38.4,38.4-38.4c21.171,0,38.4,17.229,38.4,38.4
	S277.171,217.6,256,217.6z"/>
<path style="fill:#573A32;" d="M192,512h128c14.14,0,25.6-11.46,25.6-25.6V334.242c54.929-31.804,89.6-90.974,89.6-155.042
	C435.2,80.384,354.807,0,256,0S76.8,80.384,76.8,179.2c0,64.068,34.671,123.238,89.6,155.042V486.4C166.4,500.54,177.86,512,192,512
	z M320,486.4H192v-51.2h128V486.4z M102.4,179.2c0-84.83,68.77-153.6,153.6-153.6s153.6,68.77,153.6,153.6
	c0,61.961-36.762,115.209-89.6,139.503V409.6h-51.2V228.582c22.016-5.726,38.4-25.591,38.4-49.382c0-28.228-22.972-51.2-51.2-51.2
	c-28.228,0-51.2,22.972-51.2,51.2c0,23.791,16.384,43.657,38.4,49.382V409.6H192v-90.897C139.162,294.409,102.4,241.161,102.4,179.2
	z M256,204.8c-14.14,0-25.6-11.46-25.6-25.6c0-14.14,11.46-25.6,25.6-25.6c14.14,0,25.6,11.46,25.6,25.6
	C281.6,193.34,270.14,204.8,256,204.8z"/>
</svg>